# xmcd CD database file
#
# Track frame offsets:
#	150
#	13070
#	27035
#	38877
#	54467
#	68167
#	86052
#	103267
#	120690
#	135402
#	147670
#	161400
#	185330
#	196607
#	209367
#	221902
#	247387
#	263132
#
# Disc length: 3655 seconds
#
# Revision: 0
# Processed by: cddbd v1.5.2PL0 Copyright (c) Steve Scherf et al.
# Submitted via: CDex 1.51
#
DISCID=0e0e4512
DTITLE=Robert Jr. Lockwood - Plays Robert And Robert
DYEAR=1900
DGENRE=Blues
TTITLE0=Ramblin' On My Mind
TTITLE1=Kind Hearted Woman Blues
TTITLE2=Walkin' Blues
TTITLE3=I'm A Steady Rollin' Man
TTITLE4=Sweet Home Chicago
TTITLE5=Little Queen Of Spades
TTITLE6=Western Horizon
TTITLE7=She Is Little And Low
TTITLE8=Little Boy Blue
TTITLE9=Lockwood's Boogie
TTITLE10=Take A Walk With Me
TTITLE11=See See Rider
TTITLE12=Sweet Home Chicago (Alt. Take)
TTITLE13=Rumblin' On My Mind (Alt. Take)
TTITLE14=Walkin' Blues (Alt. Take)
TTITLE15=Little Boy Blue (Alt. Take)
TTITLE16=Take A Walk With Me (Alt. Take)
TTITLE17=Sweet Home Chicago (Alt. Take)
EXTD=
EXTT0=
EXTT1=
EXTT2=
EXTT3=
EXTT4=
EXTT5=
EXTT6=
EXTT7=
EXTT8=
EXTT9=
EXTT10=
EXTT11=
EXTT12=
EXTT13=
EXTT14=
EXTT15=
EXTT16=
EXTT17=
PLAYORDER=
